
<svg
   xmlns:dc="http://purl.org/dc/elements/1.1/"
   xmlns:cc="http://creativecommons.org/ns#"
   xmlns:rdf="http://www.w3.org/1999/02/22-rdf-syntax-ns#"
   xmlns:svg="http://www.w3.org/2000/svg"
   xmlns="http://www.w3.org/2000/svg"
   xmlns:sodipodi="http://sodipodi.sourceforge.net/DTD/sodipodi-0.dtd"
   xmlns:inkscape="http://www.inkscape.org/namespaces/inkscape"
   viewPort="0 0 744 1052"
   id="shipsvg"
   version="1.1"
   inkscape:version="0.48.4 r9939"
   sodipodi:docname="New document 1">
  <g
     inkscape:label="Layer 1"
     inkscape:groupmode="layer"
     id="layer1">
    <g
       id="g2996"
       transform="translate(-7.8571429,-138.57143)">
      <path
         style="fill:#fbfbfb"
         d="m 259.28571,742.36218 0,-50 100,0 100,0 0,50 0,50 -100,0 -100,0 0,-50 z"
         id="path3006"
         inkscape:connector-curvature="0" />
      <path
         style="fill:#acacac"
         d="m 289.11072,790.86218 c -6.07905,-1.30034 -9.67453,-4.05971 -14.22745,-10.91897 -4.29105,-6.46476 -12.61997,-25.63272 -14.52524,-33.42804 -1.09372,-4.47492 -1.08387,-5.56935 0.0604,-6.71022 0.93951,-0.93672 6.52933,-1.70918 17.86727,-2.46906 9.075,-0.60823 17.0625,-1.287 17.75,-1.5084 0.86791,-0.27949 1.25,-2.95195 1.25,-8.7428 0,-9.0884 0.9644,-11.38402 5,-11.90177 2.45177,-0.31455 2.50133,-0.49437 2.56872,-9.32074 0.0378,-4.95 0.15029,-9.5625 0.25,-10.25 0.13102,-0.90346 2.9213,-1.25 10.06465,-1.25 11.48678,0 11.0799,-0.42667 11.10298,11.64301 0.0107,5.58236 0.35925,7.27563 1.59544,7.75 2.85732,1.09646 11.2726,0.6496 12.10919,-0.64301 0.44496,-0.6875 0.80902,-5.075 0.80902,-9.75 l 0,-8.5 10.5,0 10.5,0 0.24932,5.5 c 0.13712,3.025 0.49501,6.9625 0.79531,8.75 0.52893,3.14843 0.6986,3.25 5.42925,3.25 7.05562,0 7.99808,-1.33145 7.317,-10.33692 -0.4898,-6.47627 -0.34044,-7.43008 1.25963,-8.04409 2.0419,-0.78355 20.40193,-2.14236 20.53546,-1.51981 0.0473,0.22045 0.60978,4.45082 1.25,9.40082 l 1.16403,9 4.74546,0.54546 c 2.61001,0.30001 5.19471,0.99471 5.74378,1.54378 0.54907,0.54907 1.25018,3.90362 1.55802,7.45454 0.30783,3.55092 0.78615,7.94603 1.06292,9.76692 l 0.50322,3.3107 21.1933,-0.18772 c 11.65632,-0.10324 21.9808,0.14259 22.9433,0.54629 3.89264,1.6327 1.71808,6.93079 -10.10763,24.62624 -10.03004,15.0085 -20.55495,27.06242 -26.00924,29.78773 -7.32964,3.66237 -19.4167,4.29896 -74.88216,3.94382 -29.94997,-0.19177 -54.77168,-0.77 -57.42596,-1.33776 z m 29.01248,-63.39713 c 0.39198,-2.76037 -1.68837,-4.47152 -3.55395,-2.92322 -1.38834,1.15222 -1.71428,4.05628 -0.5823,5.18825 1.38763,1.38764 3.80559,0.0635 4.13625,-2.26503 z m 35.12268,1.44512 c 1.43083,-1.72404 0.46235,-5.54799 -1.40511,-5.54799 -2.41154,0 -3.80713,2.66049 -2.58927,4.93608 1.3035,2.43561 2.34804,2.59563 3.99438,0.61191 z m 34.53983,-3.54799 c 0,-1.56144 -0.646,-2.59702 -1.75302,-2.81021 -1.97949,-0.38122 -3.26679,2.01323 -2.35699,4.38412 0.95373,2.4854 4.11001,1.27672 4.11001,-1.57391 z"
         id="path3004"
         inkscape:connector-curvature="0" />
      <path
         style="fill:#00a1c2"
         d="m 338.19222,791.93536 c -0.3262,-0.32621 -11.65061,-0.70112 -25.16534,-0.83314 l -24.57224,-0.24004 -4.33446,-3.03244 c -2.38396,-1.66784 -5.99943,-5.49284 -8.03437,-8.5 -3.47989,-5.14243 -14.87336,-30.36661 -16.29695,-36.08003 -0.63758,-2.55889 -0.52122,-2.62763 5.67296,-3.35104 3.47814,-0.40621 11.76559,-1.07279 18.41657,-1.48128 6.65097,-0.40849 12.61347,-1.06458 13.25,-1.45798 0.7251,-0.44814 1.15732,-3.79626 1.15732,-8.96512 0,-8.9938 0.97409,-11.29486 5,-11.81137 2.45537,-0.31501 2.50516,-0.49863 2.78881,-10.28571 0.18623,-6.42603 0.71894,-10.23832 1.5,-10.73468 0.66615,-0.42335 4.48781,-0.77662 8.49257,-0.78504 5.38694,-0.0113 7.42352,0.35509 7.82769,1.40833 0.30047,0.783 0.84884,5.3955 1.21862,10.25 l 0.67231,8.82636 6.84001,0.29774 c 9.45808,0.41171 9.94624,-0.14026 9.51065,-10.75373 l -0.35066,-8.54401 7.5,-0.70205 c 4.125,-0.38613 8.23391,-0.48531 9.13092,-0.22041 1.82397,0.53866 2.86908,4.53307 2.86908,10.96567 0,7.03694 0.42141,7.45679 7.48454,7.45679 8.0895,0 8.73277,-0.80083 8.37432,-10.42568 -0.15469,-4.15356 0.15129,-7.96223 0.67995,-8.4637 0.52865,-0.50147 5.01119,-1.069 9.96119,-1.26119 l 9,-0.34943 0.58795,8.58328 c 0.32337,4.72081 0.91242,9.10831 1.30901,9.75 0.39659,0.6417 2.46237,1.16672 4.59063,1.16672 5.65558,0 6.72448,1.66292 7.53988,11.72999 0.39069,4.82351 1.15154,9.31999 1.69078,9.99218 0.74566,0.92949 6.46449,1.08499 23.8811,0.64934 22.72664,-0.56847 22.90065,-0.55699 22.90065,1.51168 0,3.16491 -19.95972,32.61298 -28.07249,41.41744 -12.49917,13.56486 -13.27,13.75782 -57.4277,14.37582 -19.25011,0.26941 -35.26709,0.22294 -35.5933,-0.10327 z m 2.09349,-43.61364 c 61.10917,-1.16864 82.6425,-1.72246 98.75694,-2.53994 11.57262,-0.58707 12.36822,-0.76325 14.25,-3.15555 2.61622,-3.32598 2.52385,-5.24592 -0.25694,-5.34089 -10.70064,-0.36544 -71.3255,0.35111 -95.75,1.1317 -16.775,0.53612 -34.775,0.97996 -40,0.98632 -11.68367,0.0142 -47.48817,1.80505 -51.25,2.56337 -2.90241,0.58508 -3.42823,2.25965 -1.71482,5.46119 1.24316,2.32286 1.24014,2.32282 75.96482,0.8938 z m -21.4726,-17.98982 c 1.4534,-1.60599 1.63821,-2.59663 0.88433,-4.74029 -1.16173,-3.30334 -3.89783,-4.00448 -6.48613,-1.6621 -2.33243,2.11082 -2.40339,3.30551 -0.3689,6.21016 1.93278,2.75943 3.59887,2.81307 5.9707,0.19223 z m 36.02062,-1.40266 c 2.85722,-4.36068 -1.92415,-9.34661 -5.69264,-5.93618 -3.31023,2.99571 -1.81966,8.36912 2.32157,8.36912 0.97732,0 2.4943,-1.09482 3.37107,-2.43294 z m 33.62324,-0.22205 c 2.26919,-2.05358 2.3248,-4.13939 0.17375,-6.51627 -2.04452,-2.25917 -3.17264,-2.29471 -5.51627,-0.17375 -2.26919,2.05358 -2.3248,4.13939 -0.17375,6.51627 2.04452,2.25917 3.17264,2.29471 5.51627,0.17375 z m -67.35206,-14.21211 c 0.82661,-0.52413 1.20001,-2.29209 1,-4.73469 -0.30957,-3.78065 -0.44159,-3.9072 -4.37751,-4.19634 -2.23206,-0.16397 -5.26956,0.16239 -6.75,0.72525 -2.18472,0.83063 -2.69169,1.65586 -2.69169,4.38146 0,1.84695 0.3,3.65809 0.66667,4.02475 0.95435,0.95436 10.58174,0.79557 12.15253,-0.20043 z m 37.36085,-1.91295 c 0.42219,-0.42219 0.49551,-2.44439 0.16294,-4.49378 -0.66102,-4.0734 -0.90363,-4.15933 -8.71902,-3.08811 -5.03059,0.68952 -6.54367,2.88887 -5.10528,7.42083 0.65149,2.05267 1.11598,2.15969 6.79652,1.56595 3.35348,-0.35051 6.44266,-0.98271 6.86484,-1.40489 z m 36.31995,-4.70626 c 0,-4.64981 -0.9262,-5.06571 -9.02709,-4.05357 -4.79302,0.59885 -5.29965,0.90603 -5.67138,3.43875 -0.71172,4.8493 -0.15952,5.20737 7.54575,4.89298 l 7.15272,-0.29185 0,-3.98631 z m -76.5,-7.51369 c 2.24363,-0.71854 2.28208,-0.81086 0.375,-0.90032 -1.16875,-0.0548 -3.53125,-0.38093 -5.25,-0.72468 -2.47436,-0.49487 -3.125,-0.28667 -3.125,1 0,1.77631 3.54117,2.05297 8,0.625 z m 33.25,-0.70573 c -1.2375,-0.23836 -3.2625,-0.23836 -4.5,0 -1.2375,0.23835 -0.225,0.43337 2.25,0.43337 2.475,0 3.4875,-0.19502 2.25,-0.43337 z m 38.75,-1.29427 c 1.90795,-0.61103 1.13829,-0.82425 -3.25,-0.90032 -3.23312,-0.0561 -5.75,0.33804 -5.75,0.90032 0,1.16288 5.36891,1.16288 9,0 z"
         id="path3002"
         inkscape:connector-curvature="0" />
      <path
         style="fill:#00748d"
         d="m 338.19222,791.93536 c -0.3262,-0.32621 -11.65061,-0.70112 -25.16534,-0.83314 l -24.57224,-0.24004 -4.33446,-3.03244 c -2.38396,-1.66784 -5.99943,-5.49284 -8.03437,-8.5 -3.47989,-5.14243 -14.87336,-30.36661 -16.29695,-36.08003 -0.63758,-2.55889 -0.52122,-2.62763 5.67296,-3.35104 3.47814,-0.40621 11.76559,-1.07279 18.41657,-1.48128 6.65097,-0.40849 12.61347,-1.06458 13.25,-1.45798 0.7251,-0.44814 1.15732,-3.79626 1.15732,-8.96512 0,-8.9938 0.97409,-11.29486 5,-11.81137 2.45537,-0.31501 2.50516,-0.49863 2.78881,-10.28571 0.18623,-6.42603 0.71894,-10.23832 1.5,-10.73468 0.66615,-0.42335 4.48781,-0.77662 8.49257,-0.78504 5.38694,-0.0113 7.42352,0.35509 7.82769,1.40833 0.30047,0.783 0.84884,5.3955 1.21862,10.25 l 0.67231,8.82636 6.84001,0.29774 c 9.45808,0.41171 9.94624,-0.14026 9.51065,-10.75373 l -0.35066,-8.54401 7.5,-0.70205 c 4.125,-0.38613 8.23391,-0.48531 9.13092,-0.22041 1.82397,0.53866 2.86908,4.53307 2.86908,10.96567 0,7.03694 0.42141,7.45679 7.48454,7.45679 8.0895,0 8.73277,-0.80083 8.37432,-10.42568 -0.15469,-4.15356 0.15129,-7.96223 0.67995,-8.4637 0.52865,-0.50147 5.01119,-1.069 9.96119,-1.26119 l 9,-0.34943 0.58795,8.58328 c 0.32337,4.72081 0.91242,9.10831 1.30901,9.75 0.39659,0.6417 2.46237,1.16672 4.59063,1.16672 5.65558,0 6.72448,1.66292 7.53988,11.72999 0.39069,4.82351 1.15154,9.31999 1.69078,9.99218 0.74566,0.92949 6.46449,1.08499 23.8811,0.64934 22.72664,-0.56847 22.90065,-0.55699 22.90065,1.51168 0,3.16491 -19.95972,32.61298 -28.07249,41.41744 -12.49917,13.56486 -13.27,13.75782 -57.4277,14.37582 -19.25011,0.26941 -35.26709,0.22294 -35.5933,-0.10327 z m 69.99109,-4.66753 c 8.8522,-1.40526 12.64274,-3.61514 20.51518,-11.96033 6.25304,-6.62856 17.58722,-22.6531 17.58722,-24.86525 0,-1.00847 -20.24104,-0.69986 -63,0.96054 -14.025,0.54462 -31.575,0.93756 -39,0.87322 -7.425,-0.0643 -27.59531,0.21737 -44.82291,0.62603 l -31.32291,0.74301 0.65269,2.60856 c 1.18313,4.72851 9.29898,20.53709 12.51598,24.37943 5.69342,6.80015 6.1449,6.88892 36.66321,7.20841 15.07745,0.15785 27.60973,0.48318 27.84951,0.72297 0.85067,0.85067 56.06756,-0.29736 62.36203,-1.29659 z m -67.8976,-38.94611 c 61.10917,-1.16864 82.6425,-1.72246 98.75694,-2.53994 11.57262,-0.58707 12.36822,-0.76325 14.25,-3.15555 2.61622,-3.32598 2.52385,-5.24592 -0.25694,-5.34089 -10.70064,-0.36544 -71.3255,0.35111 -95.75,1.1317 -16.775,0.53612 -34.775,0.97996 -40,0.98632 -11.68367,0.0142 -47.48817,1.80505 -51.25,2.56337 -2.90241,0.58508 -3.42823,2.25965 -1.71482,5.46119 1.24316,2.32286 1.24014,2.32282 75.96482,0.8938 z m -31,-13.90052 c 0,-0.51754 -0.39627,-1.18589 -0.8806,-1.48523 -1.47289,-0.91029 -1.94517,-5.62092 -0.93159,-9.29182 1.14011,-4.12914 0.7317,-4.72957 -2.64124,-3.88301 -2.44486,0.61362 -2.54657,0.93792 -2.54657,8.12009 l 0,7.48095 3.5,0 c 1.925,0 3.5,-0.42344 3.5,-0.94098 z m 34.1153,-1.55902 c -0.64761,-3.36679 -0.47431,-9.87916 0.32408,-12.17839 0.74783,-2.15363 0.64449,-2.17507 -9.09148,-1.88636 -13.36865,0.39643 -12.46228,0.11811 -10.79476,3.31475 1.85259,3.55141 1.82392,6.62016 -0.0965,10.33393 l -1.5434,2.98461 10.7934,-0.28427 c 10.18154,-0.26816 10.77159,-0.39765 10.4087,-2.28427 z m 32.60998,0.90494 2.97529,-0.59505 -1.34536,-3.90495 c -1.14303,-3.31766 -1.12718,-4.53824 0.10543,-8.11589 0.79793,-2.31603 1.33415,-4.32759 1.1916,-4.47014 -0.14255,-0.14255 -4.84762,0.0204 -10.45571,0.36201 -10.53681,0.64193 -11.4148,1.12428 -8.66473,4.76021 1.88584,2.4933 1.86552,5.88985 -0.0575,9.60853 l -1.52566,2.95034 7.40068,0 c 4.07037,0 8.73956,-0.26778 10.37596,-0.59506 z m 31.06516,-8.65494 -0.29044,-8.25 -7.25,-0.29381 c -3.9875,-0.1616 -7.25,-0.0333 -7.25,0.28518 0,0.31845 0.73298,1.69766 1.62884,3.06492 1.60101,2.44345 1.54129,7.5301 -0.1373,11.69371 -0.63265,1.56924 0.0327,1.75 6.44191,1.75 l 7.14743,0 -0.29044,-8.25 z m -88.26304,5.21972 c 1.4534,-1.60599 1.63821,-2.59663 0.88433,-4.74029 -1.16173,-3.30334 -3.89783,-4.00448 -6.48613,-1.6621 -2.33243,2.11082 -2.40339,3.30551 -0.3689,6.21016 1.93278,2.75943 3.59887,2.81307 5.9707,0.19223 z m 36.02062,-1.40266 c 2.85722,-4.36068 -1.92415,-9.34661 -5.69264,-5.93618 -3.31023,2.99571 -1.81966,8.36912 2.32157,8.36912 0.97732,0 2.4943,-1.09482 3.37107,-2.43294 z m 33.62324,-0.22205 c 2.26919,-2.05358 2.3248,-4.13939 0.17375,-6.51627 -2.04452,-2.25917 -3.17264,-2.29471 -5.51627,-0.17375 -2.26919,2.05358 -2.3248,4.13939 -0.17375,6.51627 2.04452,2.25917 3.17264,2.29471 5.51627,0.17375 z m -67.35206,-14.21211 c 0.82661,-0.52413 1.20001,-2.29209 1,-4.73469 -0.30957,-3.78065 -0.44159,-3.9072 -4.37751,-4.19634 -2.23206,-0.16397 -5.26956,0.16239 -6.75,0.72525 -2.18472,0.83063 -2.69169,1.65586 -2.69169,4.38146 0,1.84695 0.3,3.65809 0.66667,4.02475 0.95435,0.95436 10.58174,0.79557 12.15253,-0.20043 z m 37.36085,-1.91295 c 0.42219,-0.42219 0.49551,-2.44439 0.16294,-4.49378 -0.66102,-4.0734 -0.90363,-4.15933 -8.71902,-3.08811 -5.03059,0.68952 -6.54367,2.88887 -5.10528,7.42083 0.65149,2.05267 1.11598,2.15969 6.79652,1.56595 3.35348,-0.35051 6.44266,-0.98271 6.86484,-1.40489 z m 36.31995,-4.70626 c 0,-4.64981 -0.9262,-5.06571 -9.02709,-4.05357 -4.79302,0.59885 -5.29965,0.90603 -5.67138,3.43875 -0.71172,4.8493 -0.15952,5.20737 7.54575,4.89298 l 7.15272,-0.29185 0,-3.98631 z m -76.5,-7.51369 c 2.24363,-0.71854 2.28208,-0.81086 0.375,-0.90032 -1.16875,-0.0548 -3.53125,-0.38093 -5.25,-0.72468 -2.47436,-0.49487 -3.125,-0.28667 -3.125,1 0,1.77631 3.54117,2.05297 8,0.625 z m 33.25,-0.70573 c -1.2375,-0.23836 -3.2625,-0.23836 -4.5,0 -1.2375,0.23835 -0.225,0.43337 2.25,0.43337 2.475,0 3.4875,-0.19502 2.25,-0.43337 z m 38.75,-1.29427 c 1.90795,-0.61103 1.13829,-0.82425 -3.25,-0.90032 -3.23312,-0.0561 -5.75,0.33804 -5.75,0.90032 0,1.16288 5.36891,1.16288 9,0 z"
         id="path3000"
         inkscape:connector-curvature="0" />
      <path
         style="fill:#375156"
         d="m 338.19222,791.93536 c -0.3262,-0.32621 -11.65061,-0.70112 -25.16534,-0.83314 l -24.57224,-0.24004 -4.33446,-3.03244 c -2.38396,-1.66784 -5.99943,-5.49284 -8.03437,-8.5 -3.47989,-5.14243 -14.87336,-30.36661 -16.29695,-36.08003 -0.63758,-2.55889 -0.52122,-2.62763 5.67296,-3.35104 3.47814,-0.40621 11.76559,-1.07279 18.41657,-1.48128 6.65097,-0.40849 12.61347,-1.06458 13.25,-1.45798 0.7251,-0.44814 1.15732,-3.79626 1.15732,-8.96512 0,-8.9938 0.97409,-11.29486 5,-11.81137 2.45537,-0.31501 2.50516,-0.49863 2.78881,-10.28571 0.18623,-6.42603 0.71894,-10.23832 1.5,-10.73468 0.66615,-0.42335 4.48781,-0.77662 8.49257,-0.78504 5.38694,-0.0113 7.42352,0.35509 7.82769,1.40833 0.30047,0.783 0.84884,5.3955 1.21862,10.25 l 0.67231,8.82636 6.84001,0.29774 c 9.45808,0.41171 9.94624,-0.14026 9.51065,-10.75373 l -0.35066,-8.54401 7.5,-0.70205 c 4.125,-0.38613 8.23391,-0.48531 9.13092,-0.22041 1.82397,0.53866 2.86908,4.53307 2.86908,10.96567 0,7.03694 0.42141,7.45679 7.48454,7.45679 8.0895,0 8.73277,-0.80083 8.37432,-10.42568 -0.15469,-4.15356 0.15129,-7.96223 0.67995,-8.4637 0.52865,-0.50147 5.01119,-1.069 9.96119,-1.26119 l 9,-0.34943 0.58795,8.58328 c 0.32337,4.72081 0.91242,9.10831 1.30901,9.75 0.39659,0.6417 2.46237,1.16672 4.59063,1.16672 5.65558,0 6.72448,1.66292 7.53988,11.72999 0.39069,4.82351 1.15154,9.31999 1.69078,9.99218 0.74566,0.92949 6.46449,1.08499 23.8811,0.64934 22.72664,-0.56847 22.90065,-0.55699 22.90065,1.51168 0,3.16491 -19.95972,32.61298 -28.07249,41.41744 -12.49917,13.56486 -13.27,13.75782 -57.4277,14.37582 -19.25011,0.26941 -35.26709,0.22294 -35.5933,-0.10327 z m 69.75611,-3.142 c 9.98398,-1.81399 14.02765,-4.191 22.17945,-13.03782 6.70207,-7.27349 18.15793,-23.84996 18.15793,-26.27427 0,-0.6155 -1.2375,-1.10736 -2.75,-1.09302 -1.5125,0.0143 -19.85,0.47031 -40.75,1.01328 -49.43943,1.28441 -87.73949,2.06146 -114.74091,2.32792 -14.33771,0.14149 -22.11929,0.59293 -22.85211,1.32575 -1.47436,1.47436 6.71854,19.95427 11.86538,26.76356 6.72267,8.8941 6.9963,8.96552 36.72764,9.58621 48.57077,1.01399 84.52887,0.77536 92.16262,-0.61161 z m -67.66262,-40.47164 c 61.10917,-1.16864 82.6425,-1.72246 98.75694,-2.53994 11.57262,-0.58707 12.36822,-0.76325 14.25,-3.15555 2.61622,-3.32598 2.52385,-5.24592 -0.25694,-5.34089 -10.70064,-0.36544 -71.3255,0.35111 -95.75,1.1317 -16.775,0.53612 -34.775,0.97996 -40,0.98632 -11.68367,0.0142 -47.48817,1.80505 -51.25,2.56337 -2.90241,0.58508 -3.42823,2.25965 -1.71482,5.46119 1.24316,2.32286 1.24014,2.32282 75.96482,0.8938 z m -28.73883,-11.55404 c 0.32697,-0.32697 -0.27135,-2.01447 -1.3296,-3.75 -2.29387,-3.76193 -2.49103,-8.53357 -0.46337,-11.21437 2.32864,-3.07874 1.84102,-3.57055 -3.2182,-3.24592 l -4.75,0.30479 -0.2931,8.41435 c -0.21097,6.05663 0.0692,8.6442 1,9.23468 1.49443,0.94807 8.17348,1.13725 9.05427,0.25647 z m 35.04317,-1.12498 c 0.44238,-0.25615 0.10488,-1.53322 -0.75,-2.83794 -1.96281,-2.99562 -2.0092,-9.45894 -0.0861,-12.00145 0.8075,-1.06762 1.4825,-2.27863 1.5,-2.69113 0.0444,-1.04603 -25.72922,-0.9457 -26.37715,0.10268 -0.28984,0.46897 0.11929,1.70647 0.90918,2.75 2.12612,2.80882 1.87275,9.65344 -0.46748,12.62855 -1.08198,1.37552 -1.65337,2.81482 -1.26974,3.19844 0.72555,0.72556 25.12832,-0.33101 26.54133,-1.14915 z m 34.06139,-1.32376 c 0.47615,-0.43352 0.13865,-1.82627 -0.75,-3.095 -2.23439,-3.19004 -2.04911,-9.04109 0.38427,-12.13463 1.1,-1.39842 2,-2.80911 2,-3.13486 0,-0.77247 -8.38706,-0.74477 -18.75,0.0619 -4.61853,0.35953 -8.25,1.09884 -8.25,1.67956 0,0.57053 0.96877,2.06854 2.15283,3.32891 2.52613,2.68894 2.70377,7.38104 0.41187,10.87892 -0.86059,1.31342 -1.5647,2.83736 -1.5647,3.38654 0,1.17644 23.01444,0.25894 24.36573,-0.97138 z m 27.90089,-8.90443 c -0.14376,-5.20351 -0.71981,-8.92834 -1.5,-9.69932 -1.49227,-1.47464 -16.76662,-0.66968 -16.76662,0.8836 0,0.52136 0.9,2.0921 2,3.49052 2.52524,3.21032 2.52424,5.90078 -0.004,10.04704 -1.09768,1.80079 -1.996,3.50518 -1.996,3.78752 0,0.28235 4.1625,0.38397 9.25,0.22584 l 9.25,-0.28753 -0.23338,-8.44767 z m -89.73921,4.91739 c 1.45339,-1.60599 1.6382,-2.59663 0.88432,-4.74029 -1.16173,-3.30334 -3.89783,-4.00448 -6.48613,-1.6621 -2.33243,2.11082 -2.40339,3.30551 -0.3689,6.21016 1.93278,2.75943 3.59887,2.81307 5.9707,0.19223 z m 36.02061,-1.40266 c 2.85722,-4.36068 -1.92415,-9.34661 -5.69264,-5.93618 -3.31023,2.99571 -1.81966,8.36912 2.32157,8.36912 0.97732,0 2.4943,-1.09482 3.37107,-2.43294 z m 33.62324,-0.22205 c 2.26919,-2.05358 2.3248,-4.13939 0.17375,-6.51627 -2.04452,-2.25917 -3.17264,-2.29471 -5.51627,-0.17375 -2.26919,2.05358 -2.3248,4.13939 -0.17375,6.51627 2.04452,2.25917 3.17264,2.29471 5.51627,0.17375 z m -67.35206,-14.21211 c 0.82661,-0.52413 1.20001,-2.29209 1,-4.73469 -0.30957,-3.78065 -0.44159,-3.9072 -4.37751,-4.19634 -2.23206,-0.16397 -5.26956,0.16239 -6.75,0.72525 -2.18472,0.83063 -2.69169,1.65586 -2.69169,4.38146 0,1.84695 0.3,3.65809 0.66667,4.02475 0.95435,0.95436 10.58174,0.79557 12.15253,-0.20043 z m 37.36085,-1.91295 c 0.42219,-0.42219 0.49551,-2.44439 0.16294,-4.49378 -0.66102,-4.0734 -0.90363,-4.15933 -8.71902,-3.08811 -5.03059,0.68952 -6.54367,2.88887 -5.10528,7.42083 0.65149,2.05267 1.11598,2.15969 6.79652,1.56595 3.35348,-0.35051 6.44266,-0.98271 6.86484,-1.40489 z m 36.31995,-4.70626 c 0,-4.64981 -0.9262,-5.06571 -9.02709,-4.05357 -4.79302,0.59885 -5.29965,0.90603 -5.67138,3.43875 -0.71172,4.8493 -0.15952,5.20737 7.54575,4.89298 l 7.15272,-0.29185 0,-3.98631 z m -76.5,-7.51369 c 2.24363,-0.71854 2.28208,-0.81086 0.375,-0.90032 -1.16875,-0.0548 -3.53125,-0.38093 -5.25,-0.72468 -2.47436,-0.49487 -3.125,-0.28667 -3.125,1 0,1.77631 3.54117,2.05297 8,0.625 z m 33.25,-0.70573 c -1.2375,-0.23836 -3.2625,-0.23836 -4.5,0 -1.2375,0.23835 -0.225,0.43337 2.25,0.43337 2.475,0 3.4875,-0.19502 2.25,-0.43337 z m 38.75,-1.29427 c 1.90795,-0.61103 1.13829,-0.82425 -3.25,-0.90032 -3.23312,-0.0561 -5.75,0.33804 -5.75,0.90032 0,1.16288 5.36891,1.16288 9,0 z"
         id="path2998"
         inkscape:connector-curvature="0" />
    </g>
  </g>
</svg>
