<?xml version="1.0" encoding="utf-8"?>
<!-- Generator: Adobe Illustrator 17.1.0, SVG Export Plug-In . SVG Version: 6.00 Build 0)  -->
<!DOCTYPE svg PUBLIC "-//W3C//DTD SVG 1.1//EN" "http://www.w3.org/Graphics/SVG/1.1/DTD/svg11.dtd">
<svg version="1.1" xmlns="http://www.w3.org/2000/svg" xmlns:xlink="http://www.w3.org/1999/xlink" x="0px" y="0px"
	 viewBox="0 0 566.9 168.4" enable-background="new 0 0 566.9 168.4" xml:space="preserve">
<g id="Layer_1">
	<g id="Octopus">
		<path fill="#87D1E2" d="M510.2,0C496,0,496,5.7,481.9,5.7c-14.2,0-14.2-5.7-28.4-5.7c-14.2,0-14.2,5.7-28.3,5.7
			C411,5.7,411,0,396.8,0c-14.2,0-14.2,5.7-28.3,5.7c-14.2,0-14.2-5.7-28.3-5.7C326,0,326,5.7,311.8,5.7c-14.2,0-14.2-5.7-28.3-5.7
			c-14.2,0-14.2,5.7-28.3,5.7c-14.2,0-14.2-5.7-28.3-5.7c-14.2,0-14.2,5.7-28.3,5.7c-14.2,0-14.2-5.7-28.3-5.7
			c-14.2,0-14.2,5.7-28.3,5.7c-14.2,0-14.2-5.7-28.3-5.7C99.2,0,99.2,5.7,85,5.7C70.9,5.7,70.9,0,56.7,0C42.5,0,42.5,5.7,28.3,5.7
			C14.2,5.7,14.2,0,0,0v168.4h566.9V0c-14.2,0-14.2,5.7-28.4,5.7C524.4,5.7,524.4,0,510.2,0z"/>
		<g id="New_Symbol_1_">
		</g>
		<g id="Octopus_1_">
		</g>
	</g>
	<g id="New_Symbol">
	</g>
</g>
<g id="Layer_7">
</g>
<g id="Notes" display="none">
</g>
</svg>
