<?xml version="1.0" encoding="utf-8"?>
<!-- Generator: Adobe Illustrator 17.1.0, SVG Export Plug-In . SVG Version: 6.00 Build 0)  -->
<!DOCTYPE svg PUBLIC "-//W3C//DTD SVG 1.1//EN" "http://www.w3.org/Graphics/SVG/1.1/DTD/svg11.dtd">
<svg version="1.1" xmlns="http://www.w3.org/2000/svg" xmlns:xlink="http://www.w3.org/1999/xlink" x="0px" y="0px"
	 viewBox="0 0 99.6 95.9" enable-background="new 0 0 99.6 95.9" xml:space="preserve">
<g id="Guides_1_">
</g>
<g id="Layer_1">
	<g id="Octopus">
		<g id="New_Symbol_1_">
		</g>
		<g id="Octopus_1_">
		</g>
	</g>
	<g id="Guides">
	</g>
	<g id="Layer_9">
	</g>
	<g>
		<g>
			<path fill="#86D0E2" d="M9.4,62c11.7-0.1,23.4-0.2,35.2-0.3c0.4,0,0.8-0.3,0.8-0.8c0.7-16-0.9-32,0.4-47.9
				c0.1-1.8-0.4-2.9-1.5-1.4C31.9,27.7,20,44,8.7,60.8C8.4,61.3,8.8,62,9.4,62z"/>
			<path fill="#86D0E2" d="M53,12.8c-0.1,16.2-0.2,32.3-0.3,48.5c0,0.4,0.3,0.8,0.8,0.8c12.2,0.1,24.5-0.2,36.7-0.7
				c0.7,0,1-0.8,0.6-1.3C78.5,43.9,66.2,27.7,54,11.5C53.3,10.7,52.9,10.9,53,12.8z"/>
			<path fill="#F29A55" d="M98.9,69.4c-16.4,0.3-32.8,0.5-49.2,0.5c0-0.7,0-1.3,0-2c0-0.3,0-0.7,0-1c0.1-18.1,0.2-36.2,0.3-54.3
				c0,0,0,0,0-0.1c0-1.2,0-2.4,0.1-3.6c0-0.2,0-0.3,0-0.5c4.1-1,8.2-1.9,12.3-2.6c0.7-0.1,0.7-1.2,0-1.3C58.1,3.5,54,2,49.9,0.1
				C49.7,0,49.5,0,49.3,0c-0.2,0.1-0.4,0.2-0.5,0.5c0,0.1-0.1,0.2,0,0.3c-0.1,2.7-0.1,5.4-0.2,8.1c0,1.9-0.1,3.8-0.1,5.7
				c0,0.1,0,0.2,0,0.2c-0.1,17.4-0.2,34.7-0.3,52.1c0,0.3,0,0.7,0,1c0,0.7,0,1.3,0,2c-15.7,0-31.3,0-47-0.2
				c-2.1-0.1-1.2,0.7-0.7,1.3c3.1,4.2,6.2,8.3,9.3,12.5c2.7,3.7,5.2,8.2,9,10.8c3.4,2.4,9.4,1.3,13.3,1.3c5.9,0,11.7,0,17.6,0
				l16.2,0c2.7,0,5.4,0,8.1,0c1.8,0,3.9,0.1,5.6-0.8c4-2.1,6.4-6.7,9.1-10.2c3.6-4.8,7.1-9.5,10.7-14.3
				C99.8,70.1,99.4,69.4,98.9,69.4z"/>
		</g>
	</g>
</g>
<g id="Layer_7">
</g>
<g id="NOTES_II">
</g>
<g id="Notes" display="none">
</g>
</svg>
