<svg version="1.1" xmlns="http://www.w3.org/2000/svg" xmlns:xlink="http://www.w3.org/1999/xlink" x="0px" y="0px"
	 viewBox="0 0 99.6 95.9" enable-background="new 0 0 99.6 95.9" xml:space="preserve">
<g id="Layer_1">
	<g>
		<path fill="#A7D7E2" d="M50.2,1.7c0,1.8-0.1,3.6-0.1,5.4c3-0.7,6.1-1.4,9.1-2C56.2,4.2,53.1,3,50.2,1.7z"/>
		<path fill="#F49E5F" d="M55,60.6c1.5,0,3.1,0,4.6,0c3.6,0,7.1,0,10.7-0.1c6.1-0.1,12.2-0.3,18.3-0.5c-11.4-15-22.7-30.1-34.1-45.1
			c-0.1,13.4-0.2,26.8-0.3,40.2C54.3,55.9,53.6,60.6,55,60.6z"/>
		<path fill="#F49E5F" d="M41.5,60.2c3.6,0,2.4-4.3,2.5-7c0-12.9-0.9-25.9,0-38.8c-11.5,15-22.6,30.3-33.2,46
			c6.7-0.1,13.3-0.1,20-0.2C34.4,60.3,38,60.2,41.5,60.2z"/>
		<path fill="#426B95" d="M2.4,71c2.6,3.5,5.2,7,7.8,10.4c2.5,3.4,4.9,7.8,8.2,10.6c3.9,3.4,10.6,2.2,15.4,2.2c5,0,9.9,0,14.9,0
			c5,0,9.9,0,14.9,0c2.7,0,5.4,0,8.1,0c2.1,0,4.7,0.4,6.7-0.3c4.8-1.7,8.1-8.3,11-12.2c2.7-3.7,5.5-7.3,8.2-11
			C65.8,71.4,34.1,71.5,2.4,71z"/>
		<g>
			<path fill="none" d="M50.2,1.7c0,1.8-0.1,3.6-0.1,5.4c3-0.7,6.1-1.4,9.1-2C56.2,4.2,53.1,3,50.2,1.7z"/>
			<path fill="none" d="M41.5,60.2c3.6,0,2.4-4.3,2.5-7c0-12.9-0.9-25.9,0-38.8c-11.5,15-22.6,30.3-33.2,46c6.7-0.1,13.3-0.1,20-0.2
				C34.4,60.3,38,60.2,41.5,60.2z"/>
			<path fill="none" d="M55,60.6c1.5,0,3.1,0,4.6,0c3.6,0,7.1,0,10.7-0.1c6.1-0.1,12.2-0.3,18.3-0.5c-11.4-15-22.7-30.1-34.1-45.1
				c-0.1,13.4-0.2,26.8-0.3,40.2C54.3,55.9,53.6,60.6,55,60.6z"/>
			<path fill="none" d="M2.4,71c2.6,3.5,5.2,7,7.8,10.4c2.5,3.4,4.9,7.8,8.2,10.6c3.9,3.4,10.6,2.2,15.4,2.2c5,0,9.9,0,14.9,0
				c5,0,9.9,0,14.9,0c2.7,0,5.4,0,8.1,0c2.1,0,4.7,0.4,6.7-0.3c4.8-1.7,8.1-8.3,11-12.2c2.7-3.7,5.5-7.3,8.2-11
				C65.8,71.4,34.1,71.5,2.4,71z"/>
			<path fill="#231F20" d="M9.4,62c11.7-0.1,23.4-0.2,35.2-0.3c0.4,0,0.8-0.3,0.8-0.8c0.7-16-0.9-32,0.4-47.9
				c0.1-1.8-0.4-2.9-1.5-1.4C31.9,27.7,20,44,8.7,60.8C8.4,61.3,8.8,62,9.4,62z M44,14.4c-0.9,12.9,0,25.8,0,38.8c0,2.7,1.1,7-2.5,7
				c-3.6,0-7.1,0.1-10.7,0.1c-6.7,0.1-13.3,0.1-20,0.2C21.4,44.7,32.5,29.4,44,14.4z"/>
			<path fill="#231F20" d="M53,12.8c-0.1,16.2-0.2,32.3-0.3,48.5c0,0.4,0.3,0.8,0.8,0.8c12.2,0.1,24.5-0.2,36.7-0.7
				c0.7,0,1-0.8,0.6-1.3C78.5,43.9,66.2,27.7,54,11.5C53.3,10.7,52.9,10.9,53,12.8z M54.3,55.1c0.1-13.4,0.2-26.8,0.3-40.2
				c11.4,15,22.7,30.1,34.1,45.1c-6.1,0.2-12.2,0.4-18.3,0.5c-3.6,0.1-7.1,0.1-10.7,0.1c-1.5,0-3.1,0-4.6,0
				C53.6,60.6,54.3,55.9,54.3,55.1z"/>
			<path fill="#231F20" d="M98.9,69.4c-16.4,0.3-32.8,0.5-49.2,0.5c0-0.7,0-1.3,0-2c0-0.3,0-0.7,0-1c0.1-18.1,0.2-36.2,0.3-54.3
				c0,0,0,0,0-0.1c0-1.2,0-2.4,0.1-3.6c0-0.2,0-0.3,0-0.5c4.1-1,8.2-1.9,12.3-2.6c0.7-0.1,0.7-1.2,0-1.3C58.1,3.5,54,2,49.9,0.1
				C49.7,0,49.5,0,49.3,0c-0.2,0.1-0.4,0.2-0.5,0.5c0,0.1-0.1,0.2,0,0.3c-0.1,2.7-0.1,5.4-0.2,8.1c0,1.9-0.1,3.8-0.1,5.7
				c0,0.1,0,0.2,0,0.2c-0.1,17.4-0.2,34.7-0.3,52.1c0,0.3,0,0.7,0,1c0,0.7,0,1.3,0,2c-15.7,0-31.3,0-47-0.2
				c-2.1-0.1-1.2,0.7-0.7,1.3c3.1,4.2,6.2,8.3,9.3,12.5c2.7,3.7,5.2,8.2,9,10.8c3.4,2.4,9.4,1.3,13.3,1.3c5.9,0,11.7,0,17.6,0
				l16.2,0c2.7,0,5.4,0,8.1,0c1.8,0,3.9,0.1,5.6-0.8c4-2.1,6.4-6.7,9.1-10.2c3.6-4.8,7.1-9.5,10.7-14.3
				C99.8,70.1,99.4,69.4,98.9,69.4z M50.2,1.7c2.9,1.3,6,2.5,9,3.4c-3.1,0.6-6.1,1.2-9.1,2C50.1,5.3,50.2,3.5,50.2,1.7z M89.3,81.8
				c-2.9,3.9-6.2,10.5-11,12.2c-2,0.7-4.6,0.3-6.7,0.3c-2.7,0-5.4,0-8.1,0c-5,0-9.9,0-14.9,0c-5,0-9.9,0-14.9,0
				c-4.8,0-11.5,1.2-15.4-2.2c-3.2-2.8-5.6-7.2-8.2-10.6C7.5,78,4.9,74.5,2.4,71c31.7,0.5,63.4,0.4,95.1-0.2
				C94.7,74.5,92,78.2,89.3,81.8z"/>
		</g>
	</g>
</g>
</svg>
