<?xml version="1.0" encoding="UTF-8" standalone="no"?>
<!-- Created with Inkscape (http://www.inkscape.org/) -->

<svg
   xmlns:dc="http://purl.org/dc/elements/1.1/"
   xmlns:cc="http://creativecommons.org/ns#"
   xmlns:rdf="http://www.w3.org/1999/02/22-rdf-syntax-ns#"
   xmlns:svg="http://www.w3.org/2000/svg"
   xmlns="http://www.w3.org/2000/svg"
   xmlns:sodipodi="http://sodipodi.sourceforge.net/DTD/sodipodi-0.dtd"
   xmlns:inkscape="http://www.inkscape.org/namespaces/inkscape"
   width="2000"
   height="200"
   id="svg2"
   version="1.1"
   inkscape:version="0.48.4 r9939"
   sodipodi:docname="New document 1">
  <defs
     id="defs4" />
  <sodipodi:namedview
     id="base"
     pagecolor="#ffffff"
     bordercolor="#666666"
     borderopacity="1.0"
     inkscape:pageopacity="0.0"
     inkscape:pageshadow="2"
     inkscape:zoom="0.7"
     inkscape:cx="1010.6226"
     inkscape:cy="141.17837"
     inkscape:document-units="px"
     inkscape:current-layer="layer1"
     showgrid="false"
     fit-margin-top="0"
     fit-margin-left="0"
     fit-margin-right="0"
     fit-margin-bottom="0"
     inkscape:window-width="1920"
     inkscape:window-height="1017"
     inkscape:window-x="1592"
     inkscape:window-y="-8"
     inkscape:window-maximized="1" />
  <metadata
     id="metadata7">
    <rdf:RDF>
      <cc:Work
         rdf:about="">
        <dc:format>image/svg+xml</dc:format>
        <dc:type
           rdf:resource="http://purl.org/dc/dcmitype/StillImage" />
        <dc:title></dc:title>
      </cc:Work>
    </rdf:RDF>
  </metadata>
  <g
     inkscape:label="Layer 1"
     inkscape:groupmode="layer"
     id="layer1"
     transform="translate(0,-852.36218)">
    <g
       id="Layer_1"
       transform="translate(1864.5673,933.00781)">
	<g
   id="g3023">
		<path
   id="path3025"
   d="m 50.2,1.7 c 0,1.8 -0.1,3.6 -0.1,5.4 3,-0.7 6.1,-1.4 9.1,-2 -3,-0.9 -6.1,-2.1 -9,-3.4 z"
   inkscape:connector-curvature="0"
   style="fill:#a7d7e2" />

		<path
   id="path3027"
   d="m 55,60.6 c 1.5,0 3.1,0 4.6,0 3.6,0 7.1,0 10.7,-0.1 C 76.4,60.4 82.5,60.2 88.6,60 77.2,45 65.9,29.9 54.5,14.9 c -0.1,13.4 -0.2,26.8 -0.3,40.2 0.1,0.8 -0.6,5.5 0.8,5.5 z"
   inkscape:connector-curvature="0"
   style="fill:#f49e5f" />

		<path
   id="path3029"
   d="m 41.5,60.2 c 3.6,0 2.4,-4.3 2.5,-7 0,-12.9 -0.9,-25.9 0,-38.8 -11.5,15 -22.6,30.3 -33.2,46 6.7,-0.1 13.3,-0.1 20,-0.2 3.6,0.1 7.2,0 10.7,0 z"
   inkscape:connector-curvature="0"
   style="fill:#f49e5f" />

		<path
   id="path3031"
   d="m 2.4,71 c 2.6,3.5 5.2,7 7.8,10.4 2.5,3.4 4.9,7.8 8.2,10.6 3.9,3.4 10.6,2.2 15.4,2.2 5,0 9.9,0 14.9,0 5,0 9.9,0 14.9,0 2.7,0 5.4,0 8.1,0 2.1,0 4.7,0.4 6.7,-0.3 4.8,-1.7 8.1,-8.3 11,-12.2 2.7,-3.7 5.5,-7.3 8.2,-11 C 65.8,71.4 34.1,71.5 2.4,71 z"
   inkscape:connector-curvature="0"
   style="fill:#426b95" />

		<g
   id="g3033">
			<path
   id="path3035"
   d="m 50.2,1.7 c 0,1.8 -0.1,3.6 -0.1,5.4 3,-0.7 6.1,-1.4 9.1,-2 -3,-0.9 -6.1,-2.1 -9,-3.4 z"
   inkscape:connector-curvature="0"
   style="fill:none" />

			<path
   id="path3037"
   d="m 41.5,60.2 c 3.6,0 2.4,-4.3 2.5,-7 0,-12.9 -0.9,-25.9 0,-38.8 -11.5,15 -22.6,30.3 -33.2,46 6.7,-0.1 13.3,-0.1 20,-0.2 3.6,0.1 7.2,0 10.7,0 z"
   inkscape:connector-curvature="0"
   style="fill:none" />

			<path
   id="path3039"
   d="m 55,60.6 c 1.5,0 3.1,0 4.6,0 3.6,0 7.1,0 10.7,-0.1 C 76.4,60.4 82.5,60.2 88.6,60 77.2,45 65.9,29.9 54.5,14.9 c -0.1,13.4 -0.2,26.8 -0.3,40.2 0.1,0.8 -0.6,5.5 0.8,5.5 z"
   inkscape:connector-curvature="0"
   style="fill:none" />

			<path
   id="path3041"
   d="m 2.4,71 c 2.6,3.5 5.2,7 7.8,10.4 2.5,3.4 4.9,7.8 8.2,10.6 3.9,3.4 10.6,2.2 15.4,2.2 5,0 9.9,0 14.9,0 5,0 9.9,0 14.9,0 2.7,0 5.4,0 8.1,0 2.1,0 4.7,0.4 6.7,-0.3 4.8,-1.7 8.1,-8.3 11,-12.2 2.7,-3.7 5.5,-7.3 8.2,-11 C 65.8,71.4 34.1,71.5 2.4,71 z"
   inkscape:connector-curvature="0"
   style="fill:none" />

			<path
   id="path3043"
   d="m 9.4,62 c 11.7,-0.1 23.4,-0.2 35.2,-0.3 0.4,0 0.8,-0.3 0.8,-0.8 0.7,-16 -0.9,-32 0.4,-47.9 0.1,-1.8 -0.4,-2.9 -1.5,-1.4 C 31.9,27.7 20,44 8.7,60.8 8.4,61.3 8.8,62 9.4,62 z M 44,14.4 c -0.9,12.9 0,25.8 0,38.8 0,2.7 1.1,7 -2.5,7 -3.6,0 -7.1,0.1 -10.7,0.1 -6.7,0.1 -13.3,0.1 -20,0.2 C 21.4,44.7 32.5,29.4 44,14.4 z"
   inkscape:connector-curvature="0"
   style="fill:#231f20" />

			<path
   id="path3045"
   d="m 53,12.8 c -0.1,16.2 -0.2,32.3 -0.3,48.5 0,0.4 0.3,0.8 0.8,0.8 12.2,0.1 24.5,-0.2 36.7,-0.7 0.7,0 1,-0.8 0.6,-1.3 C 78.5,43.9 66.2,27.7 54,11.5 53.3,10.7 52.9,10.9 53,12.8 z m 1.3,42.3 C 54.4,41.7 54.5,28.3 54.6,14.9 66,29.9 77.3,45 88.7,60 c -6.1,0.2 -12.2,0.4 -18.3,0.5 -3.6,0.1 -7.1,0.1 -10.7,0.1 -1.5,0 -3.1,0 -4.6,0 -1.5,0 -0.8,-4.7 -0.8,-5.5 z"
   inkscape:connector-curvature="0"
   style="fill:#231f20" />

			<path
   id="path3047"
   d="m 98.9,69.4 c -16.4,0.3 -32.8,0.5 -49.2,0.5 0,-0.7 0,-1.3 0,-2 0,-0.3 0,-0.7 0,-1 0.1,-18.1 0.2,-36.2 0.3,-54.3 0,0 0,0 0,-0.1 0,-1.2 0,-2.4 0.1,-3.6 0,-0.2 0,-0.3 0,-0.5 4.1,-1 8.2,-1.9 12.3,-2.6 0.7,-0.1 0.7,-1.2 0,-1.3 C 58.1,3.5 54,2 49.9,0.1 49.7,0 49.5,0 49.3,0 c -0.2,0.1 -0.4,0.2 -0.5,0.5 0,0.1 -0.1,0.2 0,0.3 -0.1,2.7 -0.1,5.4 -0.2,8.1 0,1.9 -0.1,3.8 -0.1,5.7 0,0.1 0,0.2 0,0.2 -0.1,17.4 -0.2,34.7 -0.3,52.1 0,0.3 0,0.7 0,1 0,0.7 0,1.3 0,2 -15.7,0 -31.3,0 -47,-0.2 -2.1,-0.1 -1.2,0.7 -0.7,1.3 3.1,4.2 6.2,8.3 9.3,12.5 2.7,3.7 5.2,8.2 9,10.8 3.4,2.4 9.4,1.3 13.3,1.3 5.9,0 11.7,0 17.6,0 l 16.2,0 c 2.7,0 5.4,0 8.1,0 1.8,0 3.9,0.1 5.6,-0.8 4,-2.1 6.4,-6.7 9.1,-10.2 3.6,-4.8 7.1,-9.5 10.7,-14.3 0.4,-0.2 0,-0.9 -0.5,-0.9 z M 50.2,1.7 c 2.9,1.3 6,2.5 9,3.4 -3.1,0.6 -6.1,1.2 -9.1,2 0,-1.8 0.1,-3.6 0.1,-5.4 z m 39.1,80.1 c -2.9,3.9 -6.2,10.5 -11,12.2 -2,0.7 -4.6,0.3 -6.7,0.3 -2.7,0 -5.4,0 -8.1,0 -5,0 -9.9,0 -14.9,0 -5,0 -9.9,0 -14.9,0 -4.8,0 -11.5,1.2 -15.4,-2.2 C 15.1,89.3 12.7,84.9 10.1,81.5 7.5,78 4.9,74.5 2.4,71 c 31.7,0.5 63.4,0.4 95.1,-0.2 -2.8,3.7 -5.5,7.4 -8.2,11 z"
   inkscape:connector-curvature="0"
   style="fill:#231f20" />

		</g>

	</g>

</g>
  </g>
</svg>
